HIERARCHY
ROOT hip
{
  OFFSET -180.458 65.1186 185.384
  CHANNELS 6 Xposition Yposition Zposition Zrotation Xrotation Yrotation
  JOINT abdomen
  {
    OFFSET 0 20.6881 -0.73152
    CHANNELS 3 Zrotation Xrotation Yrotation
    JOINT chest
    {
      OFFSET 0 11.7043 -0.48768
      CHANNELS 3 Zrotation Xrotation Yrotation
      JOINT neck
      {
        OFFSET 0 22.1894 -2.19456
        CHANNELS 3 Zrotation Xrotation Yrotation
        JOINT head
        {
          OFFSET -0.24384 7.07133 1.2192
          CHANNELS 3 Zrotation Xrotation Yrotation
          JOINT leftEye
          {
            OFFSET 4.14528 8.04674 8.04672
            CHANNELS 3 Zrotation Xrotation Yrotation
            End Site
            {
              OFFSET 1 0 0
            }
          }
          JOINT rightEye
          {
            OFFSET -3.6576 8.04674 8.04672
            CHANNELS 3 Zrotation Xrotation Yrotation
            End Site
            {
              OFFSET 1 0 0
            }
          }
        }
      }
      JOINT rCollar
      {
        OFFSET -2.68224 19.2634 -4.8768
        CHANNELS 3 Zrotation Xrotation Yrotation
        JOINT rShldr
        {
          OFFSET -8.77824 -1.95073 1.46304
          CHANNELS 3 Zrotation Xrotation Yrotation
          JOINT rForeArm
          {
            OFFSET -28.1742 -1.7115 0.48768
            CHANNELS 3 Zrotation Xrotation Yrotation
            JOINT rHand
            {
              OFFSET -22.5879 0.773209 7.07136
              CHANNELS 3 Zrotation Xrotation Yrotation
              JOINT rThumb1
              {
                OFFSET -1.2192 -0.487915 3.41376
                CHANNELS 3 Zrotation Xrotation Yrotation
                JOINT rThumb2
                {
                  OFFSET -3.37035 -0.52449 3.41376
                  CHANNELS 3 Zrotation Xrotation Yrotation
                  End Site
                  {
                    OFFSET -1.78271 -1.18214 1.43049
                  }
                }
              }
              JOINT rIndex1
              {
                OFFSET -7.75947 0.938293 5.60832
                CHANNELS 3 Zrotation Xrotation Yrotation
                JOINT rIndex2
                {
                  OFFSET -2.54057 -0.884171 1.56538
                  CHANNELS 3 Zrotation Xrotation Yrotation
                  End Site
                  {
                    OFFSET -1.62519 -0.234802 1.16502
                  }
                }
              }
              JOINT rMid1
              {
                OFFSET -8.24714 1.18213 3.41376
                CHANNELS 3 Zrotation Xrotation Yrotation
                JOINT rMid2
                {
                  OFFSET -3.10165 -0.590103 1.0647
                  CHANNELS 3 Zrotation Xrotation Yrotation
                  End Site
                  {
                    OFFSET -2.48547 -0.328903 0.83742
                  }
                }
              }
              JOINT rRing1
              {
                OFFSET -8.82822 0.546677 1.51678
                CHANNELS 3 Zrotation Xrotation Yrotation
                JOINT rRing2
                {
                  OFFSET -2.60934 -0.819778 -0.0198488
                  CHANNELS 3 Zrotation Xrotation Yrotation
                  End Site
                  {
                    OFFSET -2.33842 -0.294052 0.168128
                  }
                }
              }
              JOINT rPinky1
              {
                OFFSET -8.27202 -0.0477905 -0.4584
                CHANNELS 3 Zrotation Xrotation Yrotation
                JOINT rPinky2
                {
                  OFFSET -1.82734 -0.647385 -0.700984
                  CHANNELS 3 Zrotation Xrotation Yrotation
                  End Site
                  {
                    OFFSET -1.69225 -0.51767 -0.607171
                  }
                }
              }
            }
          }
        }
      }
      JOINT lCollar
      {
        OFFSET 2.68224 19.2634 -4.8768
        CHANNELS 3 Zrotation Xrotation Yrotation
        JOINT lShldr
        {
          OFFSET 8.77824 -1.95073 1.46304
          CHANNELS 3 Zrotation Xrotation Yrotation
          JOINT lForeArm
          {
            OFFSET 28.1742 -1.7115 0.48768
            CHANNELS 3 Zrotation Xrotation Yrotation
            JOINT lHand
            {
              OFFSET 22.5879 0.773209 7.07136
              CHANNELS 3 Zrotation Xrotation Yrotation
              JOINT lThumb1
              {
                OFFSET 1.2192 -0.487915 3.41376
                CHANNELS 3 Zrotation Xrotation Yrotation
                JOINT lThumb2
                {
                  OFFSET 3.37035 -0.52449 3.41376
                  CHANNELS 3 Zrotation Xrotation Yrotation
                  End Site
                  {
                    OFFSET 1.78271 -1.18214 1.43049
                  }
                }
              }
              JOINT lIndex1
              {
                OFFSET 7.75947 0.938293 5.60832
                CHANNELS 3 Zrotation Xrotation Yrotation
                JOINT lIndex2
                {
                  OFFSET 2.54057 -0.884171 1.56538
                  CHANNELS 3 Zrotation Xrotation Yrotation
                  End Site
                  {
                    OFFSET 1.62519 -0.234802 1.16502
                  }
                }
              }
              JOINT lMid1
              {
                OFFSET 8.24714 1.18213 3.41376
                CHANNELS 3 Zrotation Xrotation Yrotation
                JOINT lMid2
                {
                  OFFSET 3.10165 -0.590103 1.0647
                  CHANNELS 3 Zrotation Xrotation Yrotation
                  End Site
                  {
                    OFFSET 2.48547 -0.328903 0.83742
                  }
                }
              }
              JOINT lRing1
              {
                OFFSET 8.82822 0.546677 1.51678
                CHANNELS 3 Zrotation Xrotation Yrotation
                JOINT lRing2
                {
                  OFFSET 2.60934 -0.819778 -0.0198488
                  CHANNELS 3 Zrotation Xrotation Yrotation
                  End Site
                  {
                    OFFSET 2.33842 -0.294052 0.168128
                  }
                }
              }
              JOINT lPinky1
              {
                OFFSET 8.27202 -0.0477905 -0.4584
                CHANNELS 3 Zrotation Xrotation Yrotation
                JOINT lPinky2
                {
                  OFFSET 1.82734 -0.647385 -0.700984
                  CHANNELS 3 Zrotation Xrotation Yrotation
                  End Site
                  {
                    OFFSET 1.69225 -0.51767 -0.607171
                  }
                }
              }
            }
          }
        }
      }
    }
  }
  JOINT rButtock
  {
    OFFSET -8.77824 4.35084 1.2192
    CHANNELS 3 Zrotation Xrotation Yrotation
    JOINT rThigh
    {
      OFFSET 0 -1.70687 -2.19456
      CHANNELS 3 Zrotation Xrotation Yrotation
      JOINT rShin
      {
        OFFSET 0 -36.8199 0.73152
        CHANNELS 3 Zrotation Xrotation Yrotation
        JOINT rFoot
        {
          OFFSET 0.73152 -45.1104 -5.12064
          CHANNELS 3 Zrotation Xrotation Yrotation
          End Site
          {
            OFFSET -1.1221 -3.69964 12.103
          }
        }
      }
    }
  }
  JOINT lButtock
  {
    OFFSET 8.77824 4.35084 1.2192
    CHANNELS 3 Zrotation Xrotation Yrotation
    JOINT lThigh
    {
      OFFSET 0 -1.70687 -2.19456
      CHANNELS 3 Zrotation Xrotation Yrotation
      JOINT lShin
      {
        OFFSET 0 -36.8199 0.73152
        CHANNELS 3 Zrotation Xrotation Yrotation
        JOINT lFoot
        {
          OFFSET -0.73152 -45.1104 -5.12064
          CHANNELS 3 Zrotation Xrotation Yrotation
          End Site
          {
            OFFSET 1.1221 -3.69964 12.103
          }
        }
      }
    }
  }
}
MOTION
Frames:	8
Frame Time:	0.00833333
83.1722 72.4257 -246.844 -1.19748 0.00337741 0.0224837 1.57505 -0.0027078 0.0428966 0.43417 0.00151646 0.075188 -3.75014e-015 7.95139e-016 -1.26201e-023 -1.09176e-014 3.18055e-015 7.45443e-017 -0 0 0 -0 0 0 -1.84019e-015 -8.15328e-018 1.49089e-016 -3.58247e-014 2.29845e-016 9.93923e-016 -6.60561e-013 1.9302e-013 2.54444e-014 -7.51884e-012 -2.1583e-013 2.54444e-014 -1.77447e-011 -5.34192e-014 1.20861e-013 -3.06542e-011 -9.22361e-014 2.05146e-013 -1.77395e-011 -5.4467e-014 1.17681e-013 7.73091 5.47488 0.417314 -1.77458e-011 -5.31749e-014 1.17681e-013 2.90554 0.965183 0.102902 -1.77372e-011 -5.30755e-014 1.17681e-013 10.2786 0.731801 0.0259123 -1.77529e-011 -5.00937e-014 1.24042e-013 2.22167 -0.733487 -0.20892 -2.03623e-015 -8.92978e-018 -1.49089e-016 -3.93452e-014 -1.61513e-016 -9.93923e-016 -6.542e-013 -2.02363e-013 -1.90833e-014 -7.52351e-012 1.6442e-013 8.26944e-014 -1.77383e-011 -8.32975e-014 1.17681e-013 -3.0622e-011 -1.39944e-013 2.19458e-013 -1.77407e-011 -8.18993e-014 1.30403e-013 -7.73091 5.47488 -0.417314 -1.77376e-011 -8.37877e-014 1.24042e-013 -2.90554 0.965183 -0.102902 -1.77422e-011 -8.37877e-014 1.24042e-013 -10.2786 0.731801 -0.0259123 -1.77298e-011 -7.91163e-014 1.24042e-013 -2.22167 -0.733487 0.20892 -2.03217e-016 0 -3.88251e-019 1.70433 -6.60406 -0.159306 0.00259039 6.39975 0.0733943 -0.527481 0.199709 0.0640266 2.03217e-016 0 3.88251e-019 0.691733 -1.9236 0.00558648 0.00917959 -2.07857 0.0757642 0.50327 3.99746 -0.139001 
84.9232 69.1865 -253.386 -0.000221248 6.79185 0.850918 1.88339 4.98359 0.644253 -0.557757 -2.38875 0.0900596 -2.81327 1.19099 -3.10699 5.33029 -9.26983 -4.17574 -0 0 0 -0 0 0 3.02022e-015 -4.72498e-015 -2.79964e-014 19.2789 12.3813 1.1276 -21.9645 -19.8472 15.1164 0.00267259 -1.19906 -0.168408 -2.38833e-010 -2.23126e-009 9.14797e-010 -4.1629e-010 -3.85325e-009 1.58217e-009 -2.38831e-010 -2.23126e-009 9.14793e-010 7.73091 5.47488 0.417314 -2.38836e-010 -2.23126e-009 9.14795e-010 2.90554 0.965183 0.102902 -2.38827e-010 -2.23126e-009 9.14797e-010 10.2786 0.731801 0.0259123 -2.38837e-010 -2.23125e-009 9.14804e-010 2.22167 -0.733487 -0.20892 2.87287e-015 -4.72958e-015 -2.8281e-014 -20.515 11.0763 9.62702 27.2387 -24.7834 -13.6369 -0.0396401 -4.42 0.614538 1.96539e-011 8.29275e-011 -2.88399e-010 3.85634e-011 1.49265e-010 -4.99909e-010 1.96517e-011 8.29299e-011 -2.88384e-010 -7.73091 5.47488 -0.417314 1.96557e-011 8.29293e-011 -2.88395e-010 -2.90554 0.965183 -0.102902 1.96499e-011 8.29297e-011 -2.88394e-010 -10.2786 0.731801 -0.0259123 1.96604e-011 8.29319e-011 -2.88395e-010 -2.22167 -0.733487 0.20892 -2.03217e-016 0 -3.88251e-019 5.38857 -4.4982 0.685674 0.111306 18.1269 0.357288 -0.721586 5.21669 -2.84838 2.03217e-016 0 3.88251e-019 0.546211 -24.3592 2.52727 0.201464 15.8214 -0.0727347 0.21002 3.64812 -4.17963 
84.5144 68.8117 -250.785 0.96799 13.9871 1.72328 2.17944 10.2156 1.34522 -1.63162 -4.91108 0.121077 -5.63906 2.42382 -6.39135 9.41223 -18.8912 -8.95997 -0 0 0 -0 0 0 8.89058e-015 -1.15287e-014 -6.43037e-014 38.9601 25.5275 2.62231 -32.2484 -36.1279 37.158 -0.00228678 -2.42617 -0.341021 -4.6654e-010 -4.70454e-009 1.91001e-009 -8.13629e-010 -8.12475e-009 3.30361e-009 -4.6654e-010 -4.70454e-009 1.91001e-009 7.73091 5.47488 0.417314 -4.66544e-010 -4.70454e-009 1.91001e-009 2.90554 0.965183 0.102902 -4.66534e-010 -4.70454e-009 1.91002e-009 10.2786 0.731801 0.0259123 -4.66539e-010 -4.70454e-009 1.91002e-009 2.22167 -0.733487 -0.20892 8.79567e-015 -1.15375e-014 -6.4574e-014 -46.4886 21.6654 21.1723 38.977 -45.6309 -37.8463 0.0228132 -9.10275 1.27814 7.48414e-011 2.48855e-010 -5.64781e-010 1.38546e-010 4.41726e-010 -9.79093e-010 7.48394e-011 2.48859e-010 -5.64765e-010 -7.73091 5.47488 -0.417314 7.48444e-011 2.4886e-010 -5.64781e-010 -2.90554 0.965183 -0.102902 7.48372e-011 2.4886e-010 -5.64778e-010 -10.2786 0.731801 -0.0259123 7.48455e-011 2.4886e-010 -5.6478e-010 -2.22167 -0.733487 0.20892 -2.03217e-016 0 -3.88251e-019 9.27508 -2.09928 1.67516 0.083821 30.2069 0.720205 -0.345155 10.5849 -6.02651 2.03217e-016 0 3.88251e-019 3.61924 -48.0185 7.15168 0.519352 34.6931 -0.271574 -0.134913 3.40794 -8.48336 
84.1202 68.7881 -248.037 1.77205 20.3509 2.65575 2.17662 14.9492 1.90413 -2.53783 -7.16926 0.12051 -8.05358 3.53094 -9.33683 11.5493 -27.1815 -13.9273 -0 0 0 -0 0 0 1.27411e-014 -1.41586e-014 -8.42874e-014 56.0615 37.0787 4.14279 -30.349 -40.3106 62.5732 -0.0131637 -3.59705 -0.506111 -6.8101e-010 -6.69368e-009 2.74415e-009 -1.18756e-009 -1.15596e-008 4.74611e-009 -6.81013e-010 -6.69367e-009 2.74414e-009 7.73091 5.47488 0.417314 -6.81015e-010 -6.69366e-009 2.74415e-009 2.90554 0.965183 0.102902 -6.81006e-010 -6.69366e-009 2.74416e-009 10.2786 0.731801 0.0259123 -6.81006e-010 -6.69366e-009 2.74416e-009 2.22167 -0.733487 -0.20892 1.26911e-014 -1.41709e-014 -8.45448e-014 -73.5064 29.2253 32.9502 31.2443 -50.7952 -72.5276 0.172096 -13.2538 1.88845 9.44384e-011 2.48949e-010 -8.65431e-010 1.76934e-010 4.48075e-010 -1.50016e-009 9.44365e-011 2.48953e-010 -8.65414e-010 -7.73091 5.47488 -0.417314 9.44423e-011 2.48956e-010 -8.65433e-010 -2.90554 0.965183 -0.102902 9.4434e-011 2.48957e-010 -8.65429e-010 -10.2786 0.731801 -0.0259123 9.44407e-011 2.48954e-010 -8.65433e-010 -2.22167 -0.733487 0.20892 -2.03217e-016 0 -3.88251e-019 12.5709 -0.287132 2.36721 -0.12848 41.5763 1.16676 0.460088 15.0926 -8.94885 2.03217e-016 0 3.88251e-019 14.7467 -68.2232 18.8812 0.988305 51.6199 -0.582034 -0.52453 2.91081 -12.2522 
83.7712 68.4892 -245.389 2.56762 24.6489 3.6134 1.69878 18.4455 2.04477 -3.03372 -8.76707 0.0396754 -9.70336 4.36233 -11.4209 12.0734 -32.7323 -18.0347 -0 0 0 -0 0 0 1.15418e-014 -6.35412e-015 -6.3462e-014 68.3873 44.7307 4.8238 -28.4299 -36.1042 77.184 -0.0263344 -4.62742 -0.651774 -8.62391e-010 -7.47242e-009 3.17559e-009 -1.50298e-009 -1.29026e-008 5.49127e-009 -8.62395e-010 -7.47241e-009 3.17559e-009 7.73091 5.47488 0.417314 -8.62397e-010 -7.47241e-009 3.17559e-009 2.90554 0.965183 0.102902 -8.62387e-010 -7.47241e-009 3.1756e-009 10.2786 0.731801 0.0259123 -8.62385e-010 -7.47241e-009 3.17561e-009 2.22167 -0.733487 -0.20892 1.1518e-014 -6.36771e-015 -6.37105e-014 -94.0703 33.3659 41.3137 26.7653 -44.6157 -92.6781 0.328072 -16.0816 2.32204 2.50596e-011 -1.65542e-010 -1.22675e-009 6.13366e-011 -2.6086e-010 -2.12595e-009 2.50568e-011 -1.65537e-010 -1.22673e-009 -7.73091 5.47488 -0.417314 2.50632e-011 -1.65535e-010 -1.22675e-009 -2.90554 0.965183 -0.102902 2.50546e-011 -1.65534e-010 -1.22675e-009 -10.2786 0.731801 -0.0259123 2.5061e-011 -1.65537e-010 -1.22675e-009 -2.22167 -0.733487 0.20892 -2.03217e-016 0 -3.88251e-019 14.5681 0.0614964 2.31704 -0.509603 51.1733 1.66213 1.13647 17.6128 -10.9385 2.03217e-016 0 3.88251e-019 46.4499 -79.4997 50.8398 1.59254 63.6857 -1.04077 -1.01183 1.81343 -14.6884 
83.5061 68.4582 -242.699 3.59212 26.0172 4.5127 0.654804 20.2461 1.54581 -2.95387 -9.44088 -0.157926 -10.3937 4.85119 -12.2918 12.1061 -34.934 -19.9118 -0 0 0 -0 0 0 -8.76379e-015 2.74637e-014 3.32044e-014 75.1014 46.9994 3.54899 -28.4264 -32.6769 79.4982 -0.0381807 -5.40934 -0.762702 -9.73036e-010 -6.36631e-009 3.08499e-009 -1.69517e-009 -1.09872e-008 5.33224e-009 -9.73038e-010 -6.3663e-009 3.08498e-009 7.73091 5.47488 0.417314 -9.73041e-010 -6.3663e-009 3.08499e-009 2.90554 0.965183 0.102902 -9.73033e-010 -6.3663e-009 3.08499e-009 10.2786 0.731801 0.0259123 -9.73031e-010 -6.3663e-009 3.085e-009 2.22167 -0.733487 -0.20892 -8.7915e-015 2.7452e-014 3.29618e-014 -101.698 35.7124 42.9572 26.8975 -40.6579 -97.6028 0.397698 -17.1074 2.4841 -2.29616e-010 -1.62596e-009 -1.87189e-009 -3.73168e-010 -2.77128e-009 -3.24226e-009 -2.29621e-010 -1.62595e-009 -1.87187e-009 -7.73091 5.47488 -0.417314 -2.29614e-010 -1.62595e-009 -1.87189e-009 -2.90554 0.965183 -0.102902 -2.29622e-010 -1.62595e-009 -1.87189e-009 -10.2786 0.731801 -0.0259123 -2.29614e-010 -1.62595e-009 -1.8719e-009 -2.22167 -0.733487 0.20892 -2.03217e-016 0 -3.88251e-019 14.7463 -1.54772 1.20253 -0.935422 58.3663 2.08683 1.08737 17.4375 -11.4678 2.03217e-016 0 3.88251e-019 68.1104 -81.5488 73.1118 2.06391 69.0254 -1.41868 -1.59825 -0.144531 -15.2418 
83.2536 68.2137 -240.086 4.87832 25.2993 5.31994 -0.766082 20.8303 0.578001 -2.46078 -9.45447 -0.438457 -10.4299 5.1035 -12.2928 12.2859 -34.9035 -19.8583 -0 0 0 -0 0 0 -4.21436e-014 7.93194e-014 1.83152e-013 77.7693 45.372 0.866955 -28.3671 -31.34 75.5196 -0.0478429 -6.01628 -0.849063 -1.03432e-009 -3.92292e-009 2.6195e-009 -1.80133e-009 -6.76011e-009 4.52394e-009 -1.03432e-009 -3.92291e-009 2.6195e-009 7.73091 5.47488 0.417314 -1.03432e-009 -3.92291e-009 2.61951e-009 2.90554 0.965183 0.102902 -1.03432e-009 -3.92291e-009 2.61951e-009 10.2786 0.731801 0.0259123 -1.03432e-009 -3.92292e-009 2.61952e-009 2.22167 -0.733487 -0.20892 -4.21966e-014 7.93117e-014 1.82913e-013 -99.1809 37.4255 39.2481 26.9639 -40.8212 -96.4025 0.383077 -16.845 2.44316 -6.13754e-010 -3.81129e-009 -2.71029e-009 -1.03054e-009 -6.53039e-009 -4.69257e-009 -6.13763e-010 -3.81129e-009 -2.71027e-009 -7.73091 5.47488 -0.417314 -6.13756e-010 -3.81129e-009 -2.71029e-009 -2.90554 0.965183 -0.102902 -6.13761e-010 -3.81129e-009 -2.71029e-009 -10.2786 0.731801 -0.0259123 -6.1375e-010 -3.81129e-009 -2.7103e-009 -2.22167 -0.733487 0.20892 -2.03217e-016 0 -3.88251e-019 13.4689 -4.56063 -0.674397 -1.32748 63.8401 2.41243 0.458229 15.357 -10.9362 2.03217e-016 0 3.88251e-019 47.6933 -81.1232 53.6666 2.1687 69.5585 -1.4775 -2.15305 -2.74072 -14.4756 
83.0251 68.0022 -237.497 6.28233 23.8231 6.05685 -2.29438 20.8701 -0.563278 -1.80604 -9.20287 -0.745683 -10.2189 5.23623 -11.9413 12.5462 -33.9704 -19.0064 -0 0 0 -0 0 0 -6.14943e-014 1.20142e-013 3.24479e-013 78.3317 42.075 -2.09129 -28.0442 -30.0641 69.1458 -0.0567195 -6.63607 -0.937226 -1.11491e-009 -1.24915e-009 1.93731e-009 -1.93913e-009 -2.13632e-009 3.34057e-009 -1.1149e-009 -1.24915e-009 1.9373e-009 7.73091 5.47488 0.417314 -1.11491e-009 -1.24915e-009 1.93731e-009 2.90554 0.965183 0.102902 -1.11491e-009 -1.24915e-009 1.93731e-009 10.2786 0.731801 0.0259123 -1.11491e-009 -1.24915e-009 1.93732e-009 2.22167 -0.733487 -0.20892 -6.15749e-014 1.20139e-013 3.24239e-013 -92.4285 38.6193 33.0422 27.0284 -42.532 -92.7285 0.33249 -15.9932 2.31018 -9.52509e-010 -5.54179e-009 -3.30778e-009 -1.61174e-009 -9.50881e-009 -5.7262e-009 -9.52521e-010 -5.54179e-009 -3.30775e-009 -7.73091 5.47488 -0.417314 -9.52514e-010 -5.54179e-009 -3.30778e-009 -2.90554 0.965183 -0.102902 -9.52517e-010 -5.54179e-009 -3.30778e-009 -10.2786 0.731801 -0.0259123 -9.52503e-010 -5.54179e-009 -3.30778e-009 -2.22167 -0.733487 0.20892 -2.03217e-016 0 -3.88251e-019 11.3899 -8.27053 -2.84128 -1.74188 68.5078 2.74184 -0.30713 12.5392 -9.96578 2.03217e-016 0 3.88251e-019 21.58 -77.6249 28.4983 2.0665 68.0454 -1.36212 -2.57475 -5.57563 -13.252 
